<?xml version="1.0" encoding="utf-8"?>
<svg version="1.1" viewBox="0 0 512 512" enable-background="new 0 0 512 512" xmlns="http://www.w3.org/2000/svg">
  <defs>
    <linearGradient id="gradient-2" gradientUnits="userSpaceOnUse" x1="256" y1="13.564" x2="256" y2="507.26">
      <stop offset="0" style="stop-color: rgb(0, 234, 255);"/>
      <stop offset="0.648" style="stop-color: rgb(0, 159, 174);"/>
      <stop offset="1" style="stop-color: rgb(0, 122, 133);"/>
    </linearGradient>
    <linearGradient id="gradient-4" gradientUnits="userSpaceOnUse" x1="268.247" y1="94.65" x2="268.247" y2="358.516" gradientTransform="matrix(0.18705, 0, 0, 0.187049, 212.168023, 285.989596)">
      <stop offset="0" style="stop-color: rgba(255, 255, 255, 1)"/>
      <stop offset="1" style="stop-color: rgb(225, 225, 225);"/>
    </linearGradient>
  </defs>
  <path d="M 113.521 13.564 L 398.479 13.564 C 437.115 13.564 468.436 44.885 468.436 83.521 L 468.436 368.479 C 468.436 407.115 437.115 438.436 398.479 438.436 L 288.057 438.436 L 216.271 500.604 C 206.024 509.479 200.9 509.479 200.9 500.604 L 200.9 438.436 L 113.521 438.436 C 74.885 438.436 43.564 407.115 43.564 368.479 L 43.564 83.521 C 43.564 44.885 74.885 13.564 113.521 13.564 Z" style="stroke-width: 8px; fill: url(#gradient-2);"/>
  <rect x="66.426" y="36.426" width="379.15" height="379.15" style="fill: none; stroke-width: 15px; stroke: rgb(255, 255, 255);" rx="54.171" ry="54.171"/>
  <path d="M 383.228 151.014 L 352.347 135.575 C 344.727 131.768 335.451 134.856 331.633 142.482 C 327.821 150.11 330.911 159.382 338.538 163.198 L 345.638 166.746 C 346.301 177.302 352.228 186.362 360.884 191.409 L 360.884 280.62 C 360.884 284.875 357.418 288.341 353.164 288.341 C 348.907 288.341 345.444 284.875 345.444 280.62 L 345.444 218.863 C 345.444 193.322 324.666 172.546 299.127 172.546 L 299.127 133.946 C 299.127 116.922 285.273 103.068 268.248 103.068 L 191.05 103.068 C 174.025 103.068 160.172 116.922 160.172 133.946 L 160.172 305.102 L 149.255 316.023 C 146.361 318.917 144.732 322.846 144.732 326.939 L 144.732 334.657 C 144.732 343.184 151.646 350.098 160.172 350.098 L 299.126 350.098 C 307.652 350.098 314.565 343.184 314.565 334.657 L 314.565 326.939 C 314.565 322.846 312.936 318.917 310.042 316.023 L 299.126 305.102 L 299.126 203.423 C 307.639 203.423 314.565 210.348 314.565 218.863 L 314.565 280.62 C 314.565 301.902 331.88 319.219 353.163 319.219 C 373.378 319.219 389.829 303.542 391.447 283.736 C 391.653 282.73 391.762 281.688 391.762 280.62 L 391.762 164.826 C 391.762 158.978 388.456 153.631 383.228 151.014 Z M 268.247 195.704 L 191.05 195.704 L 191.05 149.385 L 268.247 149.385 L 268.247 195.704 Z" style="fill: url(#gradient-4);"/>
</svg>