<?xml version="1.0" encoding="utf-8"?>
<svg version="1.1" viewBox="0 0 512 512" enable-background="new 0 0 512 512" xmlns="http://www.w3.org/2000/svg">
  <defs>
    <linearGradient id="gradient-2" gradientUnits="userSpaceOnUse" x1="256" y1="13.564" x2="256" y2="507.26">
      <stop offset="0" style="stop-color: rgb(0, 234, 255);"/>
      <stop offset="0.648" style="stop-color: rgb(0, 159, 174);"/>
      <stop offset="1" style="stop-color: rgb(0, 122, 133);"/>
    </linearGradient>
    <linearGradient id="gradient-4" gradientUnits="userSpaceOnUse" x1="268.247" y1="94.65" x2="268.247" y2="358.516" gradientTransform="matrix(0.199798, 0, 0, 0.199797, 208.346067, 290.038302)">
      <stop offset="0" style="stop-color: rgba(255, 255, 255, 1)"/>
      <stop offset="1" style="stop-color: rgb(225, 225, 225);"/>
    </linearGradient>
  </defs>
  <path d="M 113.521 13.564 L 398.479 13.564 C 437.115 13.564 468.436 44.885 468.436 83.521 L 468.436 368.479 C 468.436 407.115 437.115 438.436 398.479 438.436 L 288.057 438.436 L 216.271 500.604 C 206.024 509.479 200.9 509.479 200.9 500.604 L 200.9 438.436 L 113.521 438.436 C 74.885 438.436 43.564 407.115 43.564 368.479 L 43.564 83.521 C 43.564 44.885 74.885 13.564 113.521 13.564 Z" style="stroke-width: 8px; fill: url(#gradient-2);"/>
  <rect x="66.426" y="36.426" width="379.15" height="379.15" style="fill: none; stroke-width: 15px; stroke: rgb(255, 255, 255);" rx="54.171" ry="54.171"/>
  <path d="M 391.064 145.864 L 358.079 129.373 C 349.939 125.306 340.031 128.604 335.953 136.75 C 331.881 144.898 335.182 154.802 343.328 158.878 L 350.912 162.668 C 351.621 173.943 357.952 183.621 367.197 189.012 L 367.197 284.303 C 367.197 288.848 363.495 292.55 358.951 292.55 C 354.404 292.55 350.705 288.848 350.705 284.303 L 350.705 218.337 C 350.705 191.055 328.511 168.863 301.231 168.863 L 301.231 127.633 C 301.231 109.448 286.433 94.65 268.248 94.65 L 185.789 94.65 C 167.603 94.65 152.806 109.448 152.806 127.633 L 152.806 310.453 L 141.145 322.118 C 138.054 325.21 136.314 329.406 136.314 333.778 L 136.314 342.023 C 136.314 351.131 143.699 358.516 152.806 358.516 L 301.23 358.516 C 310.338 358.516 317.722 351.131 317.722 342.023 L 317.722 333.778 C 317.722 329.406 315.982 325.21 312.89 322.118 L 301.23 310.453 L 301.23 201.845 C 310.324 201.845 317.722 209.242 317.722 218.337 L 317.722 284.303 C 317.722 307.035 336.217 325.532 358.95 325.532 C 380.543 325.532 398.115 308.787 399.843 287.631 C 400.063 286.556 400.18 285.443 400.18 284.303 L 400.18 160.617 C 400.18 154.371 396.648 148.659 391.064 145.864 Z M 268.247 193.599 L 185.789 193.599 L 185.789 144.124 L 268.247 144.124 L 268.247 193.599 Z" style="fill: url(#gradient-4);"/>
</svg>